<?xml version="1.0" standalone="no"?>
<!DOCTYPE svg PUBLIC "-//W3C//DTD SVG 20010904//EN"
 "http://www.w3.org/TR/2001/REC-SVG-20010904/DTD/svg10.dtd">
<svg version="1.0" xmlns="http://www.w3.org/2000/svg"
 width="32.000000pt" height="32.000000pt" viewBox="0 0 32.000000 32.000000"
 preserveAspectRatio="xMidYMid meet">

<g transform="translate(0.000000,32.000000) scale(0.100000,-0.100000)"
fill="#000000" stroke="none">
<path d="M52 278 c-19 -19 -15 -29 30 -75 l42 -43 -42 -43 c-46 -47 -50 -58
-27 -77 14 -11 23 -7 60 30 l45 44 45 -44 c37 -37 46 -41 60 -30 23 19 19 30
-27 77 l-42 43 42 43 c46 47 50 58 27 77 -14 11 -23 7 -60 -30 l-45 -44 -43
42 c-47 47 -48 47 -65 30z"/>
</g>
</svg>
