<?xml version="1.0" standalone="no"?>
<!DOCTYPE svg PUBLIC "-//W3C//DTD SVG 20010904//EN"
 "http://www.w3.org/TR/2001/REC-SVG-20010904/DTD/svg10.dtd">
<svg version="1.0" xmlns="http://www.w3.org/2000/svg"
 width="72.000000pt" height="72.000000pt" viewBox="0 0 72.000000 72.000000"
 preserveAspectRatio="xMidYMid meet">

<g transform="translate(0.000000,72.000000) scale(0.100000,-0.100000)"
fill="#000000" stroke="none">
<path d="M256 704 c-61 -19 -111 -51 -157 -100 -48 -52 -64 -81 -83 -144 -39
-131 -1 -267 100 -361 52 -48 81 -64 144 -83 269 -80 524 175 444 444 -25 85
-87 164 -165 212 -73 46 -194 59 -283 32z m134 -229 l5 -80 80 -5 c77 -5 80
-6 80 -30 0 -24 -3 -25 -80 -30 l-80 -5 -5 -80 c-5 -77 -6 -80 -30 -80 -24 0
-25 3 -30 80 l-5 80 -80 5 c-77 5 -80 6 -80 30 0 24 3 25 80 30 l80 5 3 70 c3
88 7 97 34 93 21 -3 23 -9 28 -83z"/>
</g>
</svg>
